<svg id="visual" viewBox="0 0 450 450" width="450" height="450" xmlns="http://www.w3.org/2000/svg" xmlns:xlink="http://www.w3.org/1999/xlink" version="1.1"><rect x="0" y="0" width="450" height="450" fill="#993288"></rect><defs><linearGradient id="grad1_0" x1="0%" y1="0%" x2="100%" y2="100%"><stop offset="30%" stop-color="#3d2356" stop-opacity="1"></stop><stop offset="70%" stop-color="#3d2356" stop-opacity="1"></stop></linearGradient></defs><defs><linearGradient id="grad1_1" x1="0%" y1="0%" x2="100%" y2="100%"><stop offset="30%" stop-color="#3d2356" stop-opacity="1"></stop><stop offset="70%" stop-color="#682d72" stop-opacity="1"></stop></linearGradient></defs><defs><linearGradient id="grad1_2" x1="0%" y1="0%" x2="100%" y2="100%"><stop offset="30%" stop-color="#993288" stop-opacity="1"></stop><stop offset="70%" stop-color="#682d72" stop-opacity="1"></stop></linearGradient></defs><defs><linearGradient id="grad2_0" x1="0%" y1="0%" x2="100%" y2="100%"><stop offset="30%" stop-color="#3d2356" stop-opacity="1"></stop><stop offset="70%" stop-color="#3d2356" stop-opacity="1"></stop></linearGradient></defs><defs><linearGradient id="grad2_1" x1="0%" y1="0%" x2="100%" y2="100%"><stop offset="30%" stop-color="#682d72" stop-opacity="1"></stop><stop offset="70%" stop-color="#3d2356" stop-opacity="1"></stop></linearGradient></defs><defs><linearGradient id="grad2_2" x1="0%" y1="0%" x2="100%" y2="100%"><stop offset="30%" stop-color="#682d72" stop-opacity="1"></stop><stop offset="70%" stop-color="#993288" stop-opacity="1"></stop></linearGradient></defs><g transform="translate(450, 0)"><path d="M0 238.6C-47.6 235.8 -95.2 232.9 -119.3 206.7C-143.5 180.4 -144.2 130.8 -160.2 92.5C-176.2 54.2 -207.4 27.1 -238.6 0L0 0Z" fill="#80307e"></path><path d="M0 159.1C-31.7 157.2 -63.4 155.3 -79.5 137.8C-95.7 120.3 -96.2 87.2 -106.8 61.7C-117.5 36.1 -138.3 18.1 -159.1 0L0 0Z" fill="#512865"></path><path d="M0 79.5C-15.9 78.6 -31.7 77.6 -39.8 68.9C-47.8 60.1 -48.1 43.6 -53.4 30.8C-58.7 18.1 -69.1 9 -79.5 0L0 0Z" fill="#3d2356"></path></g><g transform="translate(0, 450)"><path d="M0 -238.6C35.1 -221.3 70.2 -203.9 107.5 -186.2C144.8 -168.5 184.4 -150.4 206.7 -119.3C228.9 -88.2 233.8 -44.1 238.6 0L0 0Z" fill="#80307e"></path><path d="M0 -159.1C23.4 -147.5 46.8 -135.9 71.7 -124.1C96.6 -112.3 123 -100.3 137.8 -79.5C152.6 -58.8 155.9 -29.4 159.1 0L0 0Z" fill="#512865"></path><path d="M0 -79.5C11.7 -73.8 23.4 -68 35.8 -62.1C48.3 -56.2 61.5 -50.1 68.9 -39.8C76.3 -29.4 77.9 -14.7 79.5 0L0 0Z" fill="#3d2356"></path></g></svg>