<svg id="visual" viewBox="0 0 900 450" width="900" height="450" xmlns="http://www.w3.org/2000/svg" xmlns:xlink="http://www.w3.org/1999/xlink" version="1.1"><rect x="0" y="0" width="900" height="450" fill="#663399"></rect><g fill="none" stroke="#392356" stroke-width="6"><circle r="50" cx="311" cy="291"></circle><circle r="18" cx="467" cy="209"></circle><circle r="19" cx="624" cy="226"></circle><circle r="36" cx="688" cy="66"></circle><circle r="46" cx="108" cy="155"></circle><circle r="33" cx="795" cy="323"></circle><circle r="36" cx="116" cy="295"></circle><circle r="28" cx="575" cy="384"></circle><circle r="19" cx="235" cy="58"></circle><circle r="36" cx="382" cy="94"></circle><circle r="22" cx="843" cy="110"></circle><circle r="30" cx="537" cy="61"></circle><circle r="24" cx="260" cy="179"></circle><circle r="26" cx="442" cy="311"></circle><circle r="46" cx="755" cy="183"></circle><circle r="21" cx="210" cy="376"></circle><circle r="46" cx="704" cy="396"></circle><circle r="41" cx="59" cy="396"></circle><circle r="35" cx="368" cy="386"></circle><circle r="45" cx="56" cy="55"></circle></g></svg>