<?xml version="1.0" encoding="UTF-8" standalone="no"?>
<svg
   width="224.11627"
   height="24.790054"
   viewBox="0 0 224.11627 24.790055"
   version="1.1"
   id="svg4"
   sodipodi:docname="github.svg"
   inkscape:version="1.2.1 (9c6d41e410, 2022-07-14)"
   xmlns:inkscape="http://www.inkscape.org/namespaces/inkscape"
   xmlns:sodipodi="http://sodipodi.sourceforge.net/DTD/sodipodi-0.dtd"
   xmlns="http://www.w3.org/2000/svg"
   xmlns:svg="http://www.w3.org/2000/svg">
  <defs
     id="defs8" />
  <sodipodi:namedview
     id="namedview6"
     pagecolor="#ffffff"
     bordercolor="#cccccc"
     borderopacity="1"
     inkscape:showpageshadow="0"
     inkscape:pageopacity="1"
     inkscape:pagecheckerboard="0"
     inkscape:deskcolor="#d1d1d1"
     showgrid="false"
     inkscape:zoom="3.1046407"
     inkscape:cx="183.11298"
     inkscape:cy="27.21732"
     inkscape:window-width="1920"
     inkscape:window-height="1001"
     inkscape:window-x="2391"
     inkscape:window-y="-9"
     inkscape:window-maximized="1"
     inkscape:current-layer="svg4" />
  <g
     id="g1010">
    <path
       d="M 12,0 C 5.374,0 0,5.373 0,12 0,17.302 3.438,21.8 8.207,23.387 8.806,23.498 9,23.126 9,22.81 V 20.576 C 5.662,21.302 4.967,19.16 4.967,19.16 4.421,17.773 3.634,17.404 3.634,17.404 2.545,16.659 3.717,16.675 3.717,16.675 c 1.205,0.084 1.839,1.237 1.839,1.237 1.07,1.834 2.807,1.304 3.492,0.997 C 9.155,18.134 9.466,17.604 9.81,17.305 7.145,17 4.343,15.971 4.343,11.374 4.343,10.063 4.812,8.993 5.579,8.153 5.455,7.85 5.044,6.629 5.696,4.977 c 0,0 1.008,-0.322 3.301,1.23 C 9.954,5.941 10.98,5.808 12,5.803 c 1.02,0.005 2.047,0.138 3.006,0.404 2.291,-1.552 3.297,-1.23 3.297,-1.23 0.653,1.653 0.242,2.874 0.118,3.176 0.77,0.84 1.235,1.911 1.235,3.221 0,4.609 -2.807,5.624 -5.479,5.921 0.43,0.372 0.823,1.102 0.823,2.222 v 3.293 c 0,0.319 0.192,0.694 0.801,0.576 C 20.566,21.797 24,17.3 24,12 24,5.373 18.627,0 12,0 Z"
       id="path2"
       style="fill:#ffffff;fill-opacity:1" />
    <text
       xml:space="preserve"
       style="font-size:24px;line-height:1.25;font-family:Roboto;-inkscape-font-specification:Roboto"
       x="26.327215"
       y="19.915054"
       id="text401"><tspan
         sodipodi:role="line"
         id="tspan399"
         x="26.327215"
         y="19.915054"
         style="font-size:24px;fill:#666666">/KrisWestport1311</tspan></text>
  </g>
</svg>
