<svg id="visual" viewBox="0 0 900 600" width="900" height="600" xmlns="http://www.w3.org/2000/svg" xmlns:xlink="http://www.w3.org/1999/xlink" version="1.1"><rect x="0" y="0" width="900" height="600" fill="#663399"></rect><defs><linearGradient id="grad1_0" x1="33.3%" y1="0%" x2="100%" y2="100%"><stop offset="20%" stop-color="#3d2356" stop-opacity="1"></stop><stop offset="80%" stop-color="#3d2356" stop-opacity="1"></stop></linearGradient></defs><defs><linearGradient id="grad1_1" x1="33.3%" y1="0%" x2="100%" y2="100%"><stop offset="20%" stop-color="#3d2356" stop-opacity="1"></stop><stop offset="80%" stop-color="#512b77" stop-opacity="1"></stop></linearGradient></defs><defs><linearGradient id="grad1_2" x1="33.3%" y1="0%" x2="100%" y2="100%"><stop offset="20%" stop-color="#663399" stop-opacity="1"></stop><stop offset="80%" stop-color="#512b77" stop-opacity="1"></stop></linearGradient></defs><defs><linearGradient id="grad2_0" x1="0%" y1="0%" x2="66.7%" y2="100%"><stop offset="20%" stop-color="#3d2356" stop-opacity="1"></stop><stop offset="80%" stop-color="#3d2356" stop-opacity="1"></stop></linearGradient></defs><defs><linearGradient id="grad2_1" x1="0%" y1="0%" x2="66.7%" y2="100%"><stop offset="20%" stop-color="#512b77" stop-opacity="1"></stop><stop offset="80%" stop-color="#3d2356" stop-opacity="1"></stop></linearGradient></defs><defs><linearGradient id="grad2_2" x1="0%" y1="0%" x2="66.7%" y2="100%"><stop offset="20%" stop-color="#512b77" stop-opacity="1"></stop><stop offset="80%" stop-color="#663399" stop-opacity="1"></stop></linearGradient></defs><g transform="translate(900, 0)"><path d="M0 405.6C-61.6 379.6 -123.3 353.6 -186.5 323C-249.7 292.5 -314.5 257.4 -351.3 202.8C-388.1 148.2 -396.8 74.1 -405.6 0L0 0Z" fill="#5b2f88"></path><path d="M0 270.4C-41.1 253.1 -82.2 235.7 -124.3 215.4C-166.5 195 -209.7 171.6 -234.2 135.2C-258.7 98.8 -264.6 49.4 -270.4 0L0 0Z" fill="#472766"></path><path d="M0 135.2C-20.5 126.5 -41.1 117.9 -62.2 107.7C-83.2 97.5 -104.8 85.8 -117.1 67.6C-129.4 49.4 -132.3 24.7 -135.2 0L0 0Z" fill="#3d2356"></path></g><g transform="translate(0, 600)"><path d="M0 -405.6C63.8 -383.3 127.6 -361 190.5 -330C253.4 -298.9 315.6 -259.3 351.3 -202.8C387 -146.4 396.3 -73.2 405.6 0L0 0Z" fill="#5b2f88"></path><path d="M0 -270.4C42.5 -255.5 85 -240.6 127 -220C169 -199.3 210.4 -172.8 234.2 -135.2C258 -97.6 264.2 -48.8 270.4 0L0 0Z" fill="#472766"></path><path d="M0 -135.2C21.3 -127.8 42.5 -120.3 63.5 -110C84.5 -99.6 105.2 -86.4 117.1 -67.6C129 -48.8 132.1 -24.4 135.2 0L0 0Z" fill="#3d2356"></path></g></svg>